# Blender 4.0.2
# www.blender.org
mtllib ghost2.mtl
o ghost2
v -0.582977 -1.000000 0.000000
v 0.204887 1.000000 0.000000
v -0.091465 1.000000 0.000000
v -0.362520 -0.395927 0.000000
v -0.669714 -0.005609 0.000000
v -0.514310 0.832851 0.000000
v 0.544608 0.525657 0.000000
v 0.443414 -0.757332 0.000000
v 0.204887 -0.370628 0.000000
v -0.048097 -0.919965 0.000000
v -0.156519 -0.403155 0.000000
v -0.329993 -0.905508 0.000000
v -0.568365 0.541207 0.000000
v -0.542144 0.682674 0.000000
v 0.425293 0.692253 0.000000
v 0.313173 0.848804 0.000000
v 0.535050 0.404476 0.000000
v -0.602087 0.359261 0.000000
v -0.629718 0.210188 0.000000
v 0.516221 0.165747 0.000000
v 0.506072 0.037071 0.000000
v 0.492333 -0.137113 0.000000
v -0.658305 -0.136408 0.000000
v -0.644964 -0.289356 0.000000
v 0.482564 -0.260974 0.000000
v -0.634439 -0.410025 0.000000
v 0.473771 -0.372456 0.000000
v -0.457674 -0.656659 0.000000
v -0.346549 -0.646136 0.000000
v 0.335015 -0.581594 0.000000
v -0.236838 -0.635746 0.000000
v 0.458196 -0.569929 0.000000
v -0.611654 -0.671240 0.000000
v -0.110238 -0.623758 0.000000
v 0.097368 -0.604098 0.000000
v -0.298461 0.837012 0.000000
v -0.294156 0.919877 0.000000
v -0.331629 0.198627 0.000000
v -0.322706 0.370370 0.000000
v -0.314015 0.537653 0.000000
v -0.306359 0.685009 0.000000
v -0.341622 0.006300 0.000000
v -0.349046 -0.136597 0.000000
v -0.356605 -0.282097 0.000000
v -0.098843 0.840861 0.000000
v -0.113031 0.534845 0.000000
v -0.128983 0.190768 0.000000
v -0.120283 0.378419 0.000000
v -0.105977 0.686993 0.000000
v -0.137191 0.013721 0.000000
v -0.144166 -0.136723 0.000000
v -0.150666 -0.276913 0.000000
v 0.204887 0.846716 0.000000
v 0.204887 0.391348 0.000000
v 0.204887 0.177821 0.000000
v 0.204887 0.690071 0.000000
v 0.204887 0.026138 0.000000
v 0.204887 0.530403 0.000000
v 0.204887 -0.136936 0.000000
v 0.204887 -0.267963 0.000000
vn -0.0000 -0.0000 -1.0000
vt 0.454267 1.000000
vt 0.450578 0.920430
vt 0.350769 0.918506
vt 0.352922 0.959939
vt 0.772304 0.762828
vt 0.767525 0.702238
vt 0.602444 0.695674
vt 0.602444 0.765202
vt 0.712647 0.846126
vt 0.602444 0.845035
vt 0.656586 0.924402
vt 0.602444 0.923358
vt 0.758110 0.582873
vt 0.602443 0.588910
vt 0.753036 0.518535
vt 0.602443 0.513069
vt 0.746167 0.431444
vt 0.602443 0.431532
vt 0.741282 0.369513
vt 0.602443 0.366018
vt 0.736885 0.313772
vt 0.602443 0.314686
vt 0.729098 0.215036
vt 0.667508 0.209203
vt 0.548684 0.197951
vt 0.444881 0.188121
vt 0.421741 0.298423
vt 0.381581 0.182127
vt 0.326726 0.176932
vt 0.318740 0.302037
vt 0.271163 0.171671
vt 0.194173 0.164380
vt 0.182781 0.294988
vt 0.335003 0.047246
vt 0.208511 0.000000
vt 0.721707 0.121334
vt 0.475952 0.040018
vt 0.334185 0.599314
vt 0.185141 0.605094
vt 0.198956 0.679631
vt 0.338647 0.685185
vt 0.215818 0.770603
vt 0.342993 0.768826
vt 0.177518 0.355322
vt 0.321697 0.358951
vt 0.329189 0.503150
vt 0.165143 0.497195
vt 0.228928 0.841337
vt 0.346821 0.842504
vt 0.242845 0.916426
vt 0.325477 0.431701
vt 0.170847 0.431796
vt 0.435508 0.595384
vt 0.439858 0.689209
vt 0.443485 0.767422
vt 0.424667 0.361543
vt 0.431404 0.506860
vt 0.447012 0.843496
vt 0.602444 1.000000
vt 0.427917 0.431639
s 0
usemtl ghost2
f 3/1/1 45/2/1 36/3/1 37/4/1
f 7/5/1 17/6/1 54/7/1 58/8/1
f 15/9/1 7/5/1 58/8/1 56/10/1
f 16/11/1 15/9/1 56/10/1 53/12/1
f 17/6/1 20/13/1 55/14/1 54/7/1
f 20/13/1 21/15/1 57/16/1 55/14/1
f 21/15/1 22/17/1 59/18/1 57/16/1
f 22/17/1 25/19/1 60/20/1 59/18/1
f 25/19/1 27/21/1 9/22/1 60/20/1
f 27/21/1 32/23/1 30/24/1 9/22/1
f 9/22/1 35/25/1 34/26/1 11/27/1
f 11/27/1 31/28/1 29/29/1 4/30/1
f 4/30/1 28/31/1 33/32/1 26/33/1
f 31/28/1 12/34/1 29/29/1
f 28/31/1 1/35/1 33/32/1
f 32/23/1 8/36/1 30/24/1
f 35/25/1 10/37/1 34/26/1
f 38/38/1 19/39/1 18/40/1 39/41/1
f 39/41/1 18/40/1 13/42/1 40/43/1
f 4/30/1 26/33/1 24/44/1 44/45/1
f 42/46/1 5/47/1 19/39/1 38/38/1
f 40/43/1 13/42/1 14/48/1 41/49/1
f 36/3/1 6/50/1 37/4/1
f 43/51/1 23/52/1 5/47/1 42/46/1
f 41/49/1 14/48/1 6/50/1 36/3/1
f 44/45/1 24/44/1 23/52/1 43/51/1
f 47/53/1 38/38/1 39/41/1 48/54/1
f 48/54/1 39/41/1 40/43/1 46/55/1
f 11/27/1 4/30/1 44/45/1 52/56/1
f 50/57/1 42/46/1 38/38/1 47/53/1
f 46/55/1 40/43/1 41/49/1 49/58/1
f 45/2/1 3/1/1 2/59/1 53/12/1
f 51/60/1 43/51/1 42/46/1 50/57/1
f 49/58/1 41/49/1 36/3/1 45/2/1
f 52/56/1 44/45/1 43/51/1 51/60/1
f 2/59/1 16/11/1 53/12/1
f 55/14/1 47/53/1 48/54/1 54/7/1
f 54/7/1 48/54/1 46/55/1 58/8/1
f 9/22/1 11/27/1 52/56/1 60/20/1
f 57/16/1 50/57/1 47/53/1 55/14/1
f 58/8/1 46/55/1 49/58/1 56/10/1
f 59/18/1 51/60/1 50/57/1 57/16/1
f 56/10/1 49/58/1 45/2/1 53/12/1
f 60/20/1 52/56/1 51/60/1 59/18/1
